<svg xmlns="http://www.w3.org/2000/svg" xmlns:xlink="http://www.w3.org/1999/xlink" width="500" zoomAndPan="magnify" viewBox="0 0 375 374.999991" height="500" preserveAspectRatio="xMidYMid meet" version="1.0"><defs><clipPath id="d7c3346c09"><path d="M 218.359375 132.449219 L 243.269531 132.449219 L 243.269531 156.828125 L 218.359375 156.828125 Z M 218.359375 132.449219 " clip-rule="nonzero"/></clipPath></defs><path fill="#ffffff" d="M 187.484375 375 C 155.667969 375 129.789062 349.121094 129.789062 317.304688 L 129.789062 274.042969 C 129.789062 242.226562 155.667969 216.347656 187.484375 216.347656 L 216.316406 216.347656 L 216.316406 158.652344 L 57.695312 158.652344 C 41.785156 158.652344 28.863281 171.574219 28.863281 187.484375 C 28.863281 203.390625 41.785156 216.316406 57.695312 216.316406 L 100.957031 216.316406 C 108.929688 216.316406 115.390625 222.777344 115.390625 230.746094 C 115.390625 238.71875 108.929688 245.179688 100.957031 245.179688 L 57.695312 245.179688 C 25.878906 245.179688 0 219.300781 0 187.484375 C 0 155.667969 25.878906 129.789062 57.695312 129.789062 L 216.347656 129.789062 L 216.347656 57.695312 C 216.347656 41.785156 203.425781 28.863281 187.515625 28.863281 C 171.609375 28.863281 158.683594 41.785156 158.683594 57.695312 L 158.683594 100.957031 C 158.683594 108.929688 152.222656 115.390625 144.253906 115.390625 C 136.28125 115.390625 129.820312 108.929688 129.820312 100.957031 L 129.820312 57.695312 C 129.820312 25.878906 155.699219 0 187.484375 0 C 219.300781 0 245.179688 25.878906 245.179688 57.695312 L 245.179688 129.820312 L 317.304688 129.820312 C 349.121094 129.820312 375 155.699219 375 187.515625 C 375 219.332031 349.121094 245.210938 317.304688 245.210938 L 245.179688 245.210938 L 245.179688 317.339844 C 245.179688 349.121094 219.300781 375 187.484375 375 Z M 187.484375 245.179688 C 171.574219 245.179688 158.652344 258.101562 158.652344 274.007812 L 158.652344 317.273438 C 158.652344 333.179688 171.574219 346.101562 187.484375 346.101562 C 203.390625 346.101562 216.316406 333.179688 216.316406 317.273438 L 216.316406 245.179688 Z M 245.179688 216.347656 L 317.304688 216.347656 C 333.214844 216.347656 346.136719 203.425781 346.136719 187.515625 C 346.136719 171.609375 333.214844 158.683594 317.304688 158.683594 L 245.179688 158.683594 Z M 245.179688 216.347656 " fill-opacity="1" fill-rule="nonzero"/></svg>