<svg xmlns="http://www.w3.org/2000/svg" xmlns:xlink="http://www.w3.org/1999/xlink" width="500" zoomAndPan="magnify" viewBox="0 0 375 108.749999" height="145" preserveAspectRatio="xMidYMid meet" version="1.0"><defs><g/></defs><g fill="#0097b2" fill-opacity="1"><g transform="translate(0.430048, 80.714472)"><g><path d="M 3.625 -63.546875 L 17.4375 -63.546875 L 17.4375 -38.765625 L 71.265625 -38.765625 L 71.265625 -63.546875 L 86.421875 -63.546875 L 86.421875 0 L 71.265625 0 L 71.265625 -24.96875 L 17.4375 -24.96875 L 17.4375 0 L 3.625 0 Z M 3.625 -63.546875 "/></g></g></g><g fill="#0097b2" fill-opacity="1"><g transform="translate(90.49113, 80.714472)"><g><path d="M 24.140625 0 C 20.023438 0 16.425781 -0.832031 13.34375 -2.5 C 10.257812 -4.164062 7.867188 -6.421875 6.171875 -9.265625 C 4.472656 -12.109375 3.625 -15.222656 3.625 -18.609375 L 3.625 -44.9375 C 3.625 -48.382812 4.472656 -51.515625 6.171875 -54.328125 C 7.867188 -57.140625 10.257812 -59.378906 13.34375 -61.046875 C 16.425781 -62.710938 20.023438 -63.546875 24.140625 -63.546875 L 86.421875 -63.546875 L 86.421875 -49.75 L 24.140625 -49.75 C 22.691406 -49.75 21.4375 -49.21875 20.375 -48.15625 C 19.320312 -47.101562 18.796875 -45.785156 18.796875 -44.203125 L 18.796875 -38.765625 L 58.828125 -38.765625 L 58.828125 -24.96875 L 18.796875 -24.96875 L 18.796875 -19.34375 C 18.796875 -17.757812 19.320312 -16.4375 20.375 -15.375 C 21.4375 -14.320312 22.691406 -13.796875 24.140625 -13.796875 L 86.421875 -13.796875 L 86.421875 0 Z M 24.140625 0 "/></g></g></g><g fill="#0097b2" fill-opacity="1"><g transform="translate(180.552212, 80.714472)"><g><path d="M 6.90625 -44.203125 C 7.257812 -47.898438 8.253906 -51.203125 9.890625 -54.109375 C 11.523438 -57.015625 13.8125 -59.3125 16.75 -61 C 19.6875 -62.695312 23.210938 -63.546875 27.328125 -63.546875 L 60.921875 -63.546875 C 65.035156 -63.546875 68.554688 -62.695312 71.484375 -61 C 74.421875 -59.3125 76.722656 -57.015625 78.390625 -54.109375 C 80.054688 -51.203125 81.039062 -47.898438 81.34375 -44.203125 L 85.515625 0 L 70.359375 0 L 68 -24.96875 L 20.25 -24.96875 L 17.890625 0 L 2.71875 0 Z M 21.515625 -38.765625 L 66.71875 -38.765625 L 66.171875 -44.203125 C 66.054688 -45.785156 65.515625 -47.101562 64.546875 -48.15625 C 63.578125 -49.21875 62.367188 -49.75 60.921875 -49.75 L 27.328125 -49.75 C 25.867188 -49.75 24.65625 -49.21875 23.6875 -48.15625 C 22.71875 -47.101562 22.175781 -45.785156 22.0625 -44.203125 Z M 21.515625 -38.765625 "/></g></g></g><g fill="#0097b2" fill-opacity="1"><g transform="translate(268.797548, 80.714472)"><g><path d="M 24.140625 0 C 20.023438 0 16.425781 -0.832031 13.34375 -2.5 C 10.257812 -4.164062 7.867188 -6.421875 6.171875 -9.265625 C 4.472656 -12.109375 3.625 -15.222656 3.625 -18.609375 L 3.625 -63.546875 L 18.796875 -63.546875 L 18.796875 -19.34375 C 18.796875 -17.757812 19.320312 -16.4375 20.375 -15.375 C 21.4375 -14.320312 22.691406 -13.796875 24.140625 -13.796875 L 86.421875 -13.796875 L 86.421875 0 Z M 24.140625 0 "/></g></g></g><g fill="#0097b2" fill-opacity="1"><g transform="translate(358.867756, 80.714472)"><g/></g></g></svg>